<svg id="_x33_0" enable-background="new 0 0 64 64" height="512" viewBox="0 0 64 64" width="512" xmlns="http://www.w3.org/2000/svg"><path d="m29.5 37.5-.5.5-14 14 1 7-.72.72c-1.46 1.46-3.44 2.28-5.5 2.28-2.15 0-4.1-.87-5.5-2.28-1.41-1.4-2.28-3.35-2.28-5.5 0-2.06.82-4.04 2.28-5.5l1.72-1.72 4 1 7-8-1.5-3.5 6.5-6.5.06-.05c.23.31.49.6.77.88z" fill="#fcd770"/><path d="m34.05 41.94-.05.06-6.5 6.5-3.5-.5-1 4h-3l-1 4-3 3-1-7 14-14 .5-.5 3.67 3.67c.28.28.57.54.88.77z" fill="#ffc729"/><path d="m55.58 21.33c.28 1.2.42 2.43.42 3.67 0 2.24-.44 4.44-1.29 6.47-.84 2.03-2.07 3.89-3.66 5.48l-4.22 4.22c-1.81 1.81-4.27 2.83-6.83 2.83-1.28 0-2.54-.26-3.7-.74-.8-.33-1.56-.77-2.25-1.32-.31-.23-.6-.49-.88-.77l-3.67-3.67-6.67-6.67c-.28-.28-.54-.57-.77-.88-1.33-1.69-2.06-3.78-2.06-5.95 0-1.28.26-2.54.74-3.7s1.18-2.22 2.09-3.13l4.22-4.22c3.17-3.17 7.47-4.95 11.95-4.95 1.26 0 2.51.15 3.73.43.95.21 1.87.51 2.76.88 2.05.85 3.93 2.11 5.51 3.69 2.29 2.29 3.88 5.2 4.58 8.33zm-13.57-8.97c-.97-.24-1.98-.36-3.01-.36-1.8 0-3.55.34-5.15 1.02-1.11.47-1.85 1.55-1.85 2.75 0 .79.31 1.54.87 2.1l13.26 13.26c.56.56 1.31.87 2.1.87 1.2 0 2.28-.74 2.75-1.85.68-1.6 1.02-3.35 1.02-5.15 0-1.03-.12-2.04-.36-3.01-.54-2.3-1.7-4.4-3.4-6.1l-.13-.13c-1.7-1.7-3.8-2.86-6.1-3.4z" fill="#969faa"/><path d="m63 12c0-6.065-4.935-11-11-11-4.258 0-8.117 2.459-9.934 6.288-1.011-.18-2.035-.288-3.066-.288-4.781 0-9.276 1.862-12.657 5.243l-4.222 4.222c-2.013 2.013-3.121 4.689-3.121 7.535 0 2.108.611 4.121 1.744 5.842l-6.43 6.43 1.519 3.544-6.184 7.066-3.956-.989-2.122 2.122c-1.658 1.658-2.571 3.862-2.571 6.207 0 4.84 3.938 8.778 8.778 8.778 2.345 0 4.549-.913 6.207-2.571l3.918-3.917.878-3.512h3l.97-3.883 3.103.443 6.305-6.305c1.72 1.134 3.733 1.745 5.841 1.745 2.847 0 5.522-1.108 7.535-3.121l4.222-4.222c3.381-3.381 5.243-7.876 5.243-12.657 0-1.034-.109-2.061-.289-3.075 3.711-1.769 6.289-5.547 6.289-9.925zm-53.222 49c-3.737 0-6.778-3.041-6.778-6.778 0-1.811.705-3.513 1.985-4.793l1.321-1.321 4.044 1.011 7.816-8.934-1.481-3.456 5.32-5.32c.04.041.075.086.115.127l5.965 5.964-14.146 14.146 1 7-.368.368c-1.28 1.281-2.982 1.986-4.793 1.986zm17.368-13.561-3.897-.557-1.03 4.118h-3l-1.122 4.488-1.389 1.39-.647-4.525 13.439-13.439 2.965 2.965c.041.041.086.075.127.115zm27.854-22.439c0 4.247-1.654 8.24-4.657 11.243l-4.222 4.222c-1.635 1.635-3.809 2.535-6.121 2.535s-4.486-.9-6.121-2.535l-10.344-10.343c-1.635-1.636-2.535-3.81-2.535-6.122s.9-4.486 2.535-6.122l4.222-4.222c3.004-3.002 6.996-4.656 11.243-4.656 4.186 0 8.302 1.716 11.293 4.707 1.942 1.943 3.335 4.363 4.082 6.965-.63.173-1.286.276-1.962.307-.65-2.168-1.828-4.152-3.469-5.794l-.128-.127c-2.618-2.617-6.103-4.058-9.816-4.058-1.964 0-3.83.37-5.544 1.099-1.492.633-2.456 2.075-2.456 3.673 0 1.043.423 2.065 1.161 2.803l13.264 13.264c.749.749 1.744 1.161 2.803 1.161 1.598 0 3.039-.964 3.674-2.456.729-1.715 1.098-3.58 1.098-5.544 0-.691-.066-1.371-.164-2.042.673-.051 1.327-.165 1.962-.332.121.785.202 1.577.202 2.374zm-4 0c0 1.694-.315 3.296-.938 4.761-.321.753-1.041 1.239-1.834 1.239-.524 0-1.018-.204-1.389-.575l-13.264-13.264c-.365-.366-.575-.872-.575-1.389 0-.794.485-1.513 1.238-1.833 1.466-.623 3.069-.939 4.762-.939.701 0 1.39.07 2.067.188.552 5.118 4.628 9.193 9.746 9.746.117.676.187 1.365.187 2.066zm-7.824-11.238c1.568.586 3.01 1.494 4.227 2.711l.127.127c1.216 1.217 2.122 2.657 2.708 4.225-3.551-.708-6.355-3.512-7.062-7.063zm13.071 6.169c-.852-2.854-2.404-5.502-4.54-7.638-2.131-2.131-4.773-3.682-7.62-4.535 1.559-2.904 4.579-4.758 7.913-4.758 4.963 0 9 4.038 9 9 0 3.427-1.927 6.412-4.753 7.931z"/></svg>